<?xml version="1.0" standalone="no"?>
<!DOCTYPE svg PUBLIC "-//W3C//DTD SVG 1.1//EN" "http://www.w3.org/Graphics/SVG/1.1/DTD/svg11.dtd" >
<svg xmlns="http://www.w3.org/2000/svg">
<metadata>Generated by IcoMoon</metadata>
<defs>
<font id="retease-icon" horiz-adv-x="1024">
<font-face units-per-em="1024" ascent="960" descent="-64" />
<missing-glyph horiz-adv-x="1024" />
<glyph unicode="&#x20;" horiz-adv-x="512" d="" />
<glyph unicode="&#xe900;" glyph-name="add_circle" d="M726 406v84h-172v172h-84v-172h-172v-84h172v-172h84v172h172zM512 874q176 0 301-125t125-301-125-301-301-125-301 125-125 301 125 301 301 125z" />
<glyph unicode="&#xe901;" glyph-name="arrow_lift" d="M246.784 491.691l443.051 442.709c24.917 24.917 62.464 24.917 87.381 0s24.917-62.464 0-87.381l-399.36-399.36 399.36-399.36c24.917-24.917 24.917-62.464 0-87.381s-62.464-24.917-87.381 0l-443.051 443.392c-24.917 24.917-24.917 62.464 0 87.381z" />
<glyph unicode="&#xe902;" glyph-name="check_circle" d="M426 234l384 384-60 62-324-324-152 152-60-60zM512 874q176 0 301-125t125-301-125-301-301-125-301 125-125 301 125 301 301 125z" />
<glyph unicode="&#xe903;" glyph-name="close" d="M810 686l-238-238 238-238-60-60-238 238-238-238-60 60 238 238-238 238 60 60 238-238 238 238z" />
<glyph unicode="&#xe904;" glyph-name="comment" d="M289.014 570.258c-30.743 0-55.704-25.858-55.704-57.785 0-31.907 24.961-57.764 55.704-57.764 30.788 0 55.705 25.857 55.705 57.764 0 31.927-24.917 57.785-55.705 57.785v0 0zM511.832 570.258c-30.783 0-55.705-25.858-55.705-57.785 0-31.907 24.922-57.764 55.705-57.764 30.743 0 55.663 25.857 55.663 57.764 0 31.927-24.92 57.785-55.663 57.785v0 0zM734.611 570.258c-30.743 0-55.707-25.858-55.707-57.785 0-31.907 24.964-57.764 55.707-57.764 30.738 0 55.702 25.857 55.702 57.764 0 31.927-24.964 57.785-55.702 57.785v0 0zM846.015 831.511h-668.367c-61.529 0-111.407-51.748-111.407-115.572v-378.056c0-63.804 50.972-122.623 113.904-122.623h169.785c29.562-31.528 152.048-145.002 152.048-145.002 5.434-5.669 14.235-5.669 19.664 0 0 0 89.687 88.342 148.107 145.002h173.729c62.934 0 113.907 58.819 113.907 122.623v378.056c0 63.824-49.883 115.572-111.369 115.572v0 0zM901.677 337.883c0-31.896-26.753-65.382-58.199-65.382h-170.838c-20.714 0-39.323-21.258-39.323-21.258l-119.95-111.137-119.948 111.137c0 0-22.816 21.258-42.391 21.258h-170.882c-31.445 0-58.202 33.486-58.202 65.382v378.056c0 31.927 24.919 57.78 55.705 57.78h668.367c30.748 0 55.662-25.853 55.662-57.78v-378.056z" />
<glyph unicode="&#xe905;" glyph-name="coupon" d="M817.264 631.754c0 8.88-7.5 16.061-16.762 16.061h-396.776v-52.222c0-4.964-4.024-8.973-8.981-8.973h-3.251c-4.964 0-8.981 4.017-8.981 8.973v52.222h-165.489c-9.262 0-16.769-7.182-16.769-16.061v-87.596c44.737-6.799 79.056-45.322 79.056-91.967 0-46.637-34.319-85.139-79.056-91.945v-101.894c0-8.88 7.507-16.083 16.769-16.083h165.489v52.23c0 4.956 4.017 8.981 8.981 8.981h3.251c4.956 0 8.981-4.032 8.981-8.981v-52.23h396.776c9.262 0 16.762 7.203 16.762 16.083v101.208c0.029 0 0.065 0 0.094-0.007-46.955 4.776-83.601 44.419-83.601 92.639 0 48.191 36.595 87.834 83.514 92.653v86.91zM403.726 350.072c0-4.956-4.024-8.959-8.981-8.959h-3.251c-4.964 0-8.981 4.010-8.981 8.959v67.185c0 4.956 4.017 8.981 8.981 8.981h3.251c4.956 0 8.981-4.032 8.981-8.981v-67.185zM403.726 472.84c0-4.964-4.024-8.981-8.981-8.981h-3.251c-4.964 0-8.981 4.024-8.981 8.981v67.178c0 4.971 4.017 8.981 8.981 8.981h3.251c4.956 0 8.981-4.017 8.981-8.981v-67.178zM508.763 946.59c-276.992 0-501.538-224.553-501.538-501.545 0-276.978 224.546-501.517 501.545-501.517 276.985 0 501.538 224.539 501.538 501.517-0.007 276.992-224.553 501.545-501.545 501.545zM839.098 544.447v-19.276c-3.981 0.657-8.041 1.084-12.203 1.084-40.901 0-74.064-33.163-74.064-74.071 0-40.886 33.163-74.056 74.064-74.056 4.162 0 8.229 0.433 12.203 1.098v-124.964c0-19.84-16.083-35.916-35.916-35.916h-588.845c-19.833 0-35.916 16.076-35.916 35.916v105.080c1.922-0.123 3.808-0.275 5.751-0.275 0.34 0 0.665 0.043 1.004 0.051-2.269 0.036-4.523 0.152-6.755 0.332v19.103c2.55-0.26 5.137-0.419 7.752-0.419 40.908 0 74.064 33.17 74.064 74.056 0 40.908-33.156 74.071-74.064 74.071-2.615 0-5.209-0.152-7.752-0.412v19.103c2.24 0.181 4.487 0.303 6.763 0.34-0.34 0-0.672 0.051-1.012 0.051-1.944 0-3.829-0.181-5.751-0.296v90.804c0 19.833 16.083 35.908 35.916 35.908h588.845c19.833 0 35.916-16.076 35.916-35.908v-91.404z" />
<glyph unicode="&#xe906;" glyph-name="data_no" d="M102.394 325.282h13.789c3.711-0.077 6.69-3.103 6.69-6.825 0 0 0-0.001 0-0.001v0c0-3.768-2.935-6.826-6.69-6.826h-13.789v-13.789c-0.077-3.711-3.103-6.69-6.825-6.69 0 0-0.001 0-0.001 0v0c-0.033-0.001-0.071-0.001-0.109-0.001-3.7 0-6.702 2.992-6.717 6.689v13.79h-13.789c-3.711 0.077-6.69 3.103-6.69 6.825 0 0 0 0.001 0 0.001v0c0 3.768 2.935 6.826 6.69 6.826h13.789v13.789c0.077 3.711 3.103 6.69 6.825 6.69 0 0 0.001 0 0.001 0v0c3.768 0 6.826-2.935 6.826-6.69v-13.789zM1003.458 379.892v13.789c-0.015 3.698-3.017 6.691-6.717 6.691-0.038 0-0.077 0-0.115-0.001h0.006c0 0-0.001 0-0.001 0-3.722 0-6.748-2.979-6.825-6.683v-13.796h-13.789c-3.698-0.015-6.691-3.017-6.691-6.717 0-0.038 0-0.077 0.001-0.115v0.006c0-3.659 3.004-6.826 6.69-6.826h13.789v-13.789c0-3.754 3.058-6.69 6.826-6.69 0 0 0.001 0 0.001 0 3.722 0 6.748 2.979 6.825 6.683v13.796h13.789c3.754 0 6.69 3.058 6.69 6.826 0 0 0 0.001 0 0.001 0 3.722-2.979 6.748-6.683 6.825h-13.796zM507.49 154.626h-343.701c-0.004 0-0.009 0-0.014 0-7.51 0-13.598 6.088-13.598 13.598 0 0.019 0 0.038 0 0.058v-0.003c0 7.536 6.185 13.652 13.612 13.652h61.914c-4.566 7.779-7.263 17.134-7.263 27.118 0 0.042 0 0.084 0 0.125v-0.007 396.059c0.016 30.126 24.441 54.542 54.569 54.542 0.034 0 0.067 0 0.101 0h40.898v13.721c0.016 30.126 24.441 54.542 54.569 54.542 0.034 0 0.067 0 0.101 0h327.545c0.036 0 0.080 0 0.123 0 30.123 0 54.542-24.419 54.542-54.542 0 0 0 0 0 0v0-396.059c0-9.925-2.649-19.223-7.277-27.237h75.526c7.55 0 13.666-6.062 13.666-13.652 0-7.536-6.075-13.652-13.652-13.652h-163.83v-13.721c0-9.925-2.649-19.223-7.277-27.237h7.318c7.509 0 13.612-6.062 13.612-13.652 0-7.536-6.185-13.652-13.612-13.652h-71.826c6.239-10.458 4.888-24.165-4.191-33.244-4.933-4.956-11.761-8.023-19.305-8.023s-14.371 3.067-19.304 8.022l-33.245 33.245zM557.404 181.931h43.415c15.018 0 27.196 12.151 27.196 27.373v396.564c0 14.745-11.796 26.595-26.349 26.595h-329.571c-14.554 0-26.349-11.905-26.349-26.595v-396.564c0-15.113 12.287-27.373 27.182-27.373h207.245l-7.017 7.031c-4.962 4.936-8.033 11.77-8.033 19.32 0 2.515 0.341 4.95 0.978 7.262l-0.045-0.191-12.888 12.902c-15.725-11.81-35.574-18.913-57.081-18.913-52.795 0-95.595 42.799-95.595 95.595 0 26.324 10.64 50.163 27.855 67.451l-0.003-0.003c17.306 17.366 41.247 28.112 67.697 28.112 52.78 0 95.567-42.787 95.567-95.567 0-21.635-7.189-41.591-19.309-57.609l0.174 0.24 12.902-12.902c2.127 0.597 4.57 0.941 7.093 0.941 7.542 0 14.367-3.069 19.296-8.025l45.641-45.641zM655.319 250.194h41.080c15.024 0.077 27.175 12.271 27.182 27.304v395.923c0 15.127-12.178 27.305-27.182 27.305h-327.919c-15.018-0.085-27.161-12.276-27.168-27.304v-13.653h259.343c0.036 0 0.080 0 0.123 0 30.123 0 54.542-24.419 54.542-54.542 0 0 0 0 0 0v0-355.033zM174.069 751.922h20.342c5.734 0 10.376-4.546 10.376-10.239 0-5.652-4.642-10.239-10.376-10.239h-20.342v-20.342c0-5.734-4.546-10.376-10.239-10.376-5.663 0.039-10.24 4.639-10.24 10.307 0 0.024 0 0.048 0 0.072v-0.004 20.342h-20.342c-0.028 0-0.062 0-0.096 0-5.663 0-10.257 4.58-10.28 10.238v0.002c0 5.652 4.642 10.239 10.376 10.239h20.342v20.342c0 5.734 4.546 10.376 10.239 10.376 5.652 0 10.239-4.642 10.239-10.376v-20.342zM13.652 168.279c0 7.536 6.185 13.652 13.612 13.652h81.997c7.509 0 13.612-6.062 13.612-13.652 0-7.536-6.185-13.652-13.612-13.652h-81.997c-0.004 0-0.009 0-0.014 0-7.51 0-13.598 6.088-13.598 13.598 0 0.019 0 0.038 0 0.058v-0.003zM444.197 256.528c12.355 12.355 19.996 29.423 19.996 48.275 0 37.705-30.566 68.271-68.271 68.271-18.853 0-35.92-7.642-48.275-19.996v0c-12.355-12.355-19.996-29.423-19.996-48.275 0-37.705 30.566-68.271 68.271-68.271 18.853 0 35.92 7.642 48.275 19.996v0zM300.355 577.853c0 7.535 6.105 13.645 13.638 13.652h150.192c7.54 0 13.652-6.112 13.652-13.652s-6.112-13.652-13.652-13.652v0h-150.177c-0.012 0-0.027 0-0.041 0-7.517 0-13.612 6.094-13.612 13.612 0 0.014 0 0.029 0 0.043v-0.002zM300.355 509.591c0 7.536 6.075 13.652 13.557 13.652h218.631c7.482 0 13.557-6.062 13.557-13.652 0-7.536-6.075-13.652-13.557-13.652h-218.631c-7.489 0.008-13.557 6.080-13.557 13.571 0 0.029 0 0.058 0 0.086v-0.004zM300.355 441.328c0 7.536 6.089 13.652 13.625 13.652h95.622c7.523 0 13.625-6.062 13.625-13.652 0-7.536-6.089-13.652-13.625-13.652h-95.622c-0.008 0-0.018 0-0.027 0-7.51 0-13.598 6.088-13.598 13.598 0 0.019 0 0.038 0 0.058v-0.003zM40.957 523.243c-22.62 0-40.957 18.337-40.957 40.957s18.337 40.957 40.957 40.957v0c22.62 0 40.957-18.337 40.957-40.957s-18.337-40.957-40.957-40.957v0zM40.957 543.722c0.001 0 0.002 0 0.004 0 11.31 0 20.479 9.169 20.479 20.479s-9.169 20.479-20.479 20.479c-0.001 0-0.003 0-0.004 0v0c-11.309-0.002-20.475-9.17-20.475-20.479s9.167-20.477 20.475-20.479v0zM887.412 605.158c-22.62 0-40.957 18.337-40.957 40.957s18.337 40.957 40.957 40.957v0c22.62 0 40.957-18.337 40.957-40.957s-18.337-40.957-40.957-40.957v0zM887.412 625.637c0.001 0 0.002 0 0.004 0 11.31 0 20.479 9.169 20.479 20.479s-9.169 20.479-20.479 20.479c-0.001 0-0.003 0-0.004 0v0c-11.309-0.002-20.475-9.17-20.475-20.479s9.167-20.477 20.475-20.479v0z" />
<glyph unicode="&#xe907;" glyph-name="data_off_line" d="M122.505 404.763v14.557c-0.016 3.904-3.184 7.063-7.091 7.063-0.041 0-0.081 0-0.121-0.001h0.006c0 0-0.001 0-0.001 0-3.929 0-7.124-3.145-7.205-7.055v-14.565h-14.557c-3.904-0.016-7.063-3.184-7.063-7.091 0-0.041 0-0.081 0.001-0.121v0.006c0-3.863 3.171-7.206 7.062-7.206h14.557v-14.557c0-3.963 3.228-7.062 7.206-7.062 0 0 0.001 0 0.001 0 3.929 0 7.124 3.145 7.205 7.055v14.565h14.557c3.963 0 7.062 3.228 7.062 7.206 0 0 0 0.001 0 0.001 0 3.929-3.145 7.124-7.055 7.205h-14.565zM1001.66 375.938h14.557c3.917-0.081 7.062-3.276 7.062-7.205 0-0.001 0-0.001 0-0.002v0c0-3.978-3.099-7.206-7.062-7.206h-14.557v-14.557c-0.081-3.917-3.276-7.062-7.205-7.062-0.001 0-0.001 0-0.002 0v0c-0.034-0.001-0.075-0.001-0.115-0.001-3.906 0-7.075 3.159-7.091 7.061v14.559h-14.557c-3.917 0.081-7.062 3.276-7.062 7.205 0 0.001 0 0.001 0 0.002v0c0 3.978 3.099 7.206 7.062 7.206h14.557v14.557c0.081 3.917 3.276 7.062 7.205 7.062 0.001 0 0.001 0 0.002 0v0c3.978 0 7.206-3.099 7.206-7.062v-14.557zM169.345 768.676v21.474c0 6.053-4.843 10.953-10.809 10.953-6.010 0-10.809-4.9-10.809-10.953v-21.474h-21.474c-6.053 0-10.953-4.843-10.953-10.809 0-6.010 4.9-10.809 10.953-10.809h21.474v-21.474c0-6.053 4.843-10.953 10.809-10.953 6.010 0 10.809 4.9 10.809 10.953v21.474h21.474c6.053 0 10.953 4.843 10.953 10.809 0 6.010-4.9 10.809-10.953 10.809h-21.474zM288.248 123.722v533.143c0 0.013 0 0.028 0 0.043 0 31.838 25.777 57.656 57.6 57.721h288.34c31.82-0.025 57.606-25.826 57.606-57.65 0-0.041 0-0.081 0-0.122v0.006-166.117c8.214 4.838 18.096 7.696 28.646 7.696 0.027 0 0.055 0 0.082 0h86.672c31.787-0.016 57.549-25.788 57.549-57.577 0-0.056 0-0.111 0-0.167v0.009-316.986h115.198c0.030 0 0.065 0 0.101 0 7.96 0 14.412-6.453 14.412-14.412 0 0 0 0 0 0v0c0-7.956-6.486-14.412-14.513-14.412h-806.891c-0.030 0-0.065 0-0.101 0-7.96 0-14.412 6.453-14.412 14.412 0 0 0 0 0 0v0c0 7.956 6.486 14.412 14.513 14.412h115.198zM317.072 123.722h345.897v533.186c0 15.998-12.942 28.897-28.897 28.897h-288.103c-15.959 0-28.897-12.938-28.897-28.897v-533.186zM691.794 123.722h144.124v317.015c0 0.030 0 0.065 0 0.101 0 15.896-12.886 28.782-28.782 28.782-0.015 0-0.031 0-0.046 0h-86.472c-16.041 0-28.825-12.928-28.825-28.882v-317.015zM374.722 541.681c0 0 0 0 0 0.001 0 7.909 6.371 14.33 14.261 14.412h57.946c7.869 0 14.268-6.399 14.268-14.412 0 0 0 0 0-0.001 0-7.909-6.371-14.33-14.261-14.412h-57.946c-7.886 0.024-14.269 6.422-14.269 14.311 0 0.035 0 0.071 0 0.106v-0.005zM518.846 541.681c0 0 0 0 0 0.001 0 7.909 6.371 14.33 14.261 14.412h57.946c7.869 0 14.268-6.399 14.268-14.412 0 0 0 0 0-0.001 0-7.909-6.371-14.33-14.261-14.412h-57.946c-7.886 0.024-14.269 6.422-14.269 14.311 0 0.035 0 0.071 0 0.106v-0.005zM374.722 397.557c0 0 0 0 0 0.001 0 7.909 6.371 14.33 14.261 14.412h57.946c7.869 0 14.268-6.399 14.268-14.412 0 0 0 0 0-0.001 0-7.909-6.371-14.33-14.261-14.412h-57.946c-7.886 0.024-14.269 6.422-14.269 14.311 0 0.035 0 0.071 0 0.106v-0.005zM518.846 397.557c0 0 0 0 0 0.001 0 7.909 6.371 14.33 14.261 14.412h57.946c7.869 0 14.268-6.399 14.268-14.412 0 0 0 0 0-0.001 0-7.909-6.371-14.33-14.261-14.412h-57.946c-7.886 0.024-14.269 6.422-14.269 14.311 0 0.035 0 0.071 0 0.106v-0.005zM374.722 253.433c0 0 0 0 0 0.001 0 7.909 6.371 14.33 14.261 14.412h57.946c7.869 0 14.268-6.399 14.268-14.412 0 0 0 0 0-0.001 0-7.909-6.371-14.33-14.261-14.412h-57.946c-7.886 0.024-14.269 6.422-14.269 14.311 0 0.035 0 0.071 0 0.106v-0.005zM518.846 253.433c0 0 0 0 0 0.001 0 7.909 6.371 14.33 14.261 14.412h57.946c7.869 0 14.268-6.399 14.268-14.412 0 0 0 0 0-0.001 0-7.909-6.371-14.33-14.261-14.412h-57.946c-7.886 0.024-14.269 6.422-14.269 14.311 0 0.035 0 0.071 0 0.106v-0.005zM749.444 397.701c0 7.869 6.399 14.268 14.412 14.268 0 0 0 0 0.001 0 7.909 0 14.33-6.371 14.412-14.261v-57.946c0-7.869-6.399-14.268-14.412-14.268 0 0 0 0-0.001 0-7.909 0-14.33 6.371-14.412 14.261v57.946zM749.444 253.577c0 7.869 6.399 14.268 14.412 14.268 0 0 0 0 0.001 0 7.909 0 14.33-6.371 14.412-14.261v-57.946c0-7.869-6.399-14.268-14.412-14.268 0 0 0 0-0.001 0-7.909 0-14.33 6.371-14.412 14.261v57.946zM14.412 109.309c0 7.956 6.313 14.412 14.456 14.412h71.975c0.017 0 0.037 0 0.058 0 7.952 0 14.398-6.446 14.398-14.398 0-0.005 0-0.010 0-0.015v0.001c0-7.956-6.313-14.412-14.456-14.412h-71.975c-0.017 0-0.037 0-0.058 0-7.952 0-14.398 6.446-14.398 14.398 0 0.005 0 0.010 0 0.015v-0.001zM43.237 541.681c-23.879 0-43.237 19.358-43.237 43.237s19.358 43.237 43.237 43.237v0c23.879 0 43.237-19.358 43.237-43.237s-19.358-43.237-43.237-43.237v0zM43.237 563.299c11.94 0 21.619 9.679 21.619 21.619s-9.679 21.619-21.619 21.619v0c-11.94 0-21.619-9.679-21.619-21.619s9.679-21.619 21.619-21.619v0zM879.155 628.155c-23.879 0-43.237 19.358-43.237 43.237s19.358 43.237 43.237 43.237v0c23.879 0 43.237-19.358 43.237-43.237s-19.358-43.237-43.237-43.237v0zM879.155 649.773c11.94 0 21.619 9.679 21.619 21.619s-9.679 21.619-21.619 21.619v0c-11.94 0-21.619-9.679-21.619-21.619s9.679-21.619 21.619-21.619v0z" />
<glyph unicode="&#xe908;" glyph-name="favorite" d="M512 50l-62 56c-220 200-364 330-364 492 0 132 102 234 234 234 74 0 146-36 192-90 46 54 118 90 192 90 132 0 234-102 234-234 0-162-144-294-364-494z" />
<glyph unicode="&#xe909;" glyph-name="favorite_no" d="M1020.192 558.176c-8.864 25.568-31.616 44.288-59.008 48.352l-266.432 39.616-115.808 240.448c-12.192 25.248-38.272 41.408-66.944 41.408s-54.752-16.16-66.944-41.408l-115.808-240.448-266.464-39.616c-27.36-4.064-50.112-22.784-58.944-48.352-8.8-25.632-2.144-53.856 17.184-73.12l195.264-194.944-45.28-270.432c-4.608-27.232 7.2-54.56 30.336-70.496 12.704-8.736 27.648-13.184 42.592-13.184 12.288 0 24.608 3.008 35.776 8.992l232.288 125.056 232.32-125.056c11.168-5.984 23.488-8.992 35.744-8.992 14.944 0 29.888 4.448 42.624 13.184 23.136 15.936 34.88 43.264 30.304 70.496l-45.312 270.432 195.328 194.944c19.296 19.296 25.92 47.52 17.184 73.12zM754.816 340.384c-16.384-16.32-23.808-39.328-20.064-61.888l45.312-270.432-232.32 124.992c-11.136 6.016-23.424 8.992-35.776 8.992-12.288 0-24.608-3.008-35.744-8.992l-232.32-124.992 45.312 270.432c3.776 22.56-3.648 45.568-20.032 61.888l-195.264 194.944 266.432 39.68c24.352 3.616 45.312 18.848 55.776 40.576l115.872 240.384 115.84-240.416c10.496-21.728 31.424-36.928 55.744-40.576l266.496-39.68-195.264-194.912z" />
<glyph unicode="&#xe90a;" glyph-name="qr_code" d="M928 416h-832c-17.664 0-32 14.336-32 32s14.336 32 32 32h832c17.696 0 32-14.336 32-32s-14.304-32-32-32zM832 32h-192c-17.696 0-32 14.304-32 32s14.304 32 32 32h192c17.664 0 32 14.336 32 32v160c0 17.696 14.304 32 32 32s32-14.304 32-32v-160c0-52.928-43.072-96-96-96zM352 32h-160c-52.928 0-96 43.072-96 96v160c0 17.696 14.336 32 32 32s32-14.304 32-32v-160c0-17.664 14.368-32 32-32h160c17.664 0 32-14.304 32-32s-14.336-32-32-32zM128 576c-17.664 0-32 14.336-32 32v160c0 52.928 43.072 96 96 96h160c17.664 0 32-14.336 32-32s-14.336-32-32-32h-160c-17.632 0-32-14.368-32-32v-160c0-17.664-14.336-32-32-32zM896 576c-17.696 0-32 14.336-32 32v160c0 17.632-14.336 32-32 32h-192c-17.696 0-32 14.336-32 32s14.304 32 32 32h192c52.928 0 96-43.072 96-96v-160c0-17.664-14.304-32-32-32z" />
<glyph unicode="&#xe90b;" glyph-name="favorite_ok" d="M1004.125 577.466c-4.282 13.103-17.943 36.003-61.58 42.356l-173.661 25.228c-42.682 6.214-94.929 44.148-114.060 82.874l-77.661 157.37c-19.526 39.564-45.521 45.475-59.299 45.475s-39.773-5.911-59.299-45.475l-77.684-157.37c-19.107-38.703-71.331-76.66-114.036-82.874l-173.661-25.228c-43.66-6.33-57.321-29.254-61.58-42.356-4.236-13.103-6.679-39.657 24.925-70.447l125.673-122.484c30.906-30.138 50.851-91.532 43.543-134.074l-29.649-172.963c-5.748-33.466 3.514-52.922 12.311-63.372 17.873-21.178 49.897-24.087 83.642-6.377l155.299 81.664c36.259 19.014 104.774 19.037 141.033 0l155.345-81.664c14.988-7.866 29.277-11.869 42.519-11.869 16.547 0 31.139 6.47 41.076 18.246 8.797 10.426 18.060 29.905 12.335 63.348l-29.649 172.986c-7.284 42.519 12.637 103.913 43.543 134.051l125.673 122.484c31.581 30.813 29.137 57.367 24.902 70.47z" />
<glyph unicode="&#xe90c;" glyph-name="find_no" d="M755.2 724.48c-10.24-2.56-240.64-94.72-335.36-186.88-92.16-92.16-181.76-325.12-186.88-335.36-2.56-10.24-2.56-20.48 5.12-28.16 5.12-5.12 10.24-7.68 17.92-7.68 2.56 0 5.12 0 10.24 2.56 10.24 2.56 240.64 94.72 335.36 186.88 92.16 92.16 181.76 325.12 186.88 335.36 2.56 10.24 2.56 20.48-5.12 28.16s-17.92 10.24-28.16 5.12zM565.76 394.24c-58.88-58.88-186.88-120.32-261.12-151.040 33.28 74.24 92.16 202.24 151.040 261.12s186.88 120.32 261.12 151.040c-30.72-74.24-92.16-202.24-151.040-261.12zM460.8 448c0-28.277 22.923-51.2 51.2-51.2s51.2 22.923 51.2 51.2v0c0 28.277-22.923 51.2-51.2 51.2s-51.2-22.923-51.2-51.2v0zM512 960c-281.6 0-512-230.4-512-512s230.4-512 512-512c107.52 0 209.92 33.28 296.96 94.72 10.24 7.68 15.36 23.040 5.12 35.84-7.68 10.24-23.040 15.36-35.84 5.12-76.8-53.76-168.96-84.48-266.24-84.48-253.44 0-460.8 207.36-460.8 460.8s207.36 460.8 460.8 460.8 460.8-207.36 460.8-460.8c0-97.28-30.72-189.44-87.040-268.8-7.68-10.24-5.12-28.16 5.12-35.84s28.16-5.12 35.84 5.12c64 89.6 97.28 192 97.28 299.52 0 281.6-230.4 512-512 512z" />
<glyph unicode="&#xe90d;" glyph-name="find_ok" d="M512-64c-282.77 0-512 229.23-512 512s229.23 512 512 512c282.77 0 512-229.23 512-512v0c0-282.77-229.23-512-512-512v0zM791.273 727.49c-7.404 7.446-17.655 12.054-28.982 12.054-7.949 0-15.369-2.27-21.645-6.196l0.172 0.1-310.303-190.65c-5.505-3.468-10.030-7.993-13.396-13.324l-0.103-0.174-190.619-310.303c-3.862-6.147-6.154-13.62-6.154-21.628 0-22.69 18.394-41.084 41.084-41.084 8.064 0 15.585 2.323 21.931 6.337l-0.169-0.1 310.303 190.526c5.505 3.467 10.031 7.993 13.396 13.324l0.103 0.174 190.619 310.303c3.8 6.092 6.054 13.49 6.054 21.413 0 11.448-4.704 21.798-12.284 29.221l-0.007 0.007zM535.397 407.661c-6.661-3.898-14.667-6.2-23.211-6.2-25.706 0-46.545 20.839-46.545 46.545s20.839 46.545 46.545 46.545c25.706 0 46.545-20.839 46.545-46.545 0-0.002 0-0.004 0-0.006v0c-0.002-17.16-9.291-32.151-23.114-40.22l-0.221-0.119z" />
<glyph unicode="&#xe90e;" glyph-name="index_no" d="M999.104 509.020l-399.069 418.545c-40.64 42.624-107.64 43.327-149.167 1.574l-424.818-427.131c-49.706-49.976-24.838-110.289 45.638-109.84l120.296 0.767-35.546 35.309v-386.080c0-58.501 47.151-105.989 105.473-105.989h128.082v70.619h-128.082c-19.19 0-34.832 15.754-34.832 35.37v386.080c0 19.589-15.951 35.434-35.546 35.309l-120.296-0.767c-5.064-0.032-8.342 0.501-9.501 0.988 2.244-0.943 5.348-3.768 7.31-8.527 1.934-4.689 1.74-8.742 0.885-10.858 0.524 1.297 2.532 4.126 6.212 7.826l424.818 427.131c13.497 13.571 34.731 13.348 47.94-0.506l399.069-418.545c3.517-3.689 5.417-6.517 5.921-7.873-0.672 1.806-0.765 5.373 0.947 9.495 1.746 4.205 4.468 6.762 6.392 7.618-1.18-0.525-4.388-1.106-9.352-1.138l0.45-70.618c69.903 0.445 94.938 60.727 46.776 111.24zM774.238-63.826c58.262 0 105.473 47.533 105.473 105.989v390.239l-35.095-35.309 107.712 0.686-0.45 70.618-107.712-0.686c-19.419-0.124-35.095-15.896-35.095-35.309v-390.239c0-19.566-15.697-35.37-34.832-35.37h-128.082v-70.619h128.082zM582.482 289.213c0.093 0 0.151-353.196 0.151-353.196h70.641v353.364c0 38.882-31.789 70.451-70.792 70.451h-140.981c-38.988 0-70.792-31.479-70.792-70.451h70.641c0-0.188 141.131-0.168 141.131-0.168zM441.351 289.381h-70.641v-353.364h70.641v353.364z" />
<glyph unicode="&#xe90f;" glyph-name="index_ok" d="M563.197 960h-102.395l-460.79-486.388c0 0 0.901-102.396 51.2-102.396s76.797 0 76.797 0 0-232.496 0-332.817c0-100.301 102.397-102.399 102.397-102.399h204.797c0 0 0 272.42 0 358.417 0 25.647 25.6 25.6 25.6 25.6h102.395c0 0 25.601-0.852 25.601-25.6 0-92.199 0-358.417 0-358.417s99.647 0 204.795 0c105.147 0 102.398 102.399 102.398 102.399v358.416c0 0 27.199 0 76.799 0 49.597 0 51.196 76.796 51.196 76.796l-460.79 486.389z" />
<glyph unicode="&#xe910;" glyph-name="infor" d="M512 750.545c115.679 0 209.455-93.776 209.455-209.455v-248.553c0-0.052 0-0.114 0-0.175 0-20.222 6.546-38.916 17.635-54.076l-0.181 0.259 33.047-46.545h-519.913l33.047 46.545c10.909 14.902 17.455 33.595 17.455 53.818 0 0.062 0 0.123 0 0.185v-0.010 248.553c0 115.679 93.776 209.455 209.455 209.455v0zM512 820.364c-154.238 0-279.273-125.035-279.273-279.273v0-248.553c-0.034-5.075-1.687-9.758-4.468-13.564l0.046 0.066-59.345-83.316c-5.396-7.5-8.629-16.871-8.629-26.996 0-25.706 20.839-46.545 46.545-46.545 0.006 0 0.013 0 0.019 0h610.21c0.005 0 0.012 0 0.018 0 25.706 0 46.545 20.839 46.545 46.545 0 10.126-3.233 19.496-8.724 27.135l0.095-0.139-59.345 83.316c-2.735 3.74-4.388 8.423-4.422 13.49v248.561c0 154.238-125.035 279.273-279.273 279.273v0zM535.273 843.636h-46.545c-19.277 0.003-34.903 15.631-34.903 34.909s15.626 34.906 34.903 34.909h46.546c19.277-0.003 34.903-15.631 34.903-34.909s-15.626-34.906-34.903-34.909v0zM593.455 5.818h-139.636c-19.28 0-34.909 15.629-34.909 34.909s15.629 34.909 34.909 34.909h139.636c19.28 0 34.909-15.629 34.909-34.909s-15.629-34.909-34.909-34.909v0z" />
<glyph unicode="&#xe911;" glyph-name="keyboard_arrow_right" d="M366 262l196 196-196 196 60 60 256-256-256-256z" />
<glyph unicode="&#xe912;" glyph-name="more" d="M512 145.455c-39.564 0-69.818 30.255-69.818 69.818s30.255 69.818 69.818 69.818 69.818-30.255 69.818-69.818-30.255-69.818-69.818-69.818zM512 378.182c-39.564 0-69.818 30.255-69.818 69.818s30.255 69.818 69.818 69.818 69.818-30.255 69.818-69.818-30.255-69.818-69.818-69.818zM512 610.909c-39.564 0-69.818 30.255-69.818 69.818s30.255 69.818 69.818 69.818 69.818-30.255 69.818-69.818-30.255-69.818-69.818-69.818z" />
<glyph unicode="&#xe913;" glyph-name="no_user" d="M1022 446.8c0-282.4-228.4-510.8-510.8-510.8s-510.8 228.4-510.8 510.8c0 215.6 134.8 400.2 325 475.4 56.6 22.6 120.6 35.4 185.8 35.4s129.2-12.8 185.8-35.4c190.2-75.2 325-259.8 325-475.4zM315.4 553.2c0-86.6 44-160.4 107.8-197.2 27-15.6 56.8-24.2 88-24.2s59.6 8.6 85.2 22.8c65.2 35.4 110.6 110.6 110.6 198.6 0 122-88 221.4-195.8 221.4s-195.8-99.4-195.8-221.4zM512.6-31.4c149 0 282.4 68.2 370.4 176-10 85.2-92.2 157.4-210 193-44-39.8-100.8-63.8-161.8-63.8-62.4 0-120.6 25.6-164.6 66.6-113.6-32.6-197.2-99.4-215.6-177.4 85-117.8 225.6-194.4 381.6-194.4z" />
<glyph unicode="&#xe914;" glyph-name="order" d="M703.886 675.497h-80.796v-20.23c0-11.173-9.057-20.23-20.23-20.23s-20.23 9.057-20.23 20.23v0 20.23h-141.328v-20.983c0.009-0.219 0.013-0.477 0.013-0.736 0-11.173-9.057-20.23-20.23-20.23s-20.23 9.057-20.23 20.23c0 0.52 0.020 1.035 0.058 1.546l-0.004-0.068v20.23h-80.807c-11.148-0.032-20.174-9.077-20.174-20.23 0 0 0 0 0 0v0-444.271c0 0 0 0 0 0 0-11.153 9.025-20.198 20.171-20.23h383.787c11.173 0 20.23 9.057 20.23 20.23v0 444.305c-0.013 11.163-9.065 20.207-20.23 20.207 0 0 0 0 0 0v0zM360.517 544.227h302.954c10.704-0.582 19.164-9.404 19.164-20.202s-8.46-19.62-19.113-20.2l-0.052-0.002h-302.954c-10.704 0.582-19.164 9.404-19.164 20.202s8.46 19.62 19.113 20.2l0.052 0.002zM663.471 301.851h-303.696c-10.518 0.794-18.752 9.523-18.752 20.176 0 10.914 8.642 19.809 19.457 20.215l0.037 0.001h303.696c10.518-0.794 18.752-9.523 18.752-20.176 0-10.914-8.642-19.809-19.457-20.215l-0.037-0.001zM663.471 402.843h-303.696c-10.518 0.794-18.752 9.523-18.752 20.176 0 10.914 8.642 19.809 19.457 20.215l0.037 0.001h303.696c10.518-0.794 18.752-9.523 18.752-20.176 0-10.914-8.642-19.809-19.457-20.215l-0.037-0.001zM511.994 957.333c-278.352 0-503.994-225.642-503.994-503.994s225.642-503.994 503.994-503.994 503.994 225.642 503.994 503.994-225.642 503.994-503.994 503.994zM764.452 210.985c0-0.003 0-0.007 0-0.011 0-33.457-27.112-60.581-60.564-60.6h-383.819c-33.437 0.026-60.532 27.137-60.532 60.577 0 0.012 0 0.024 0 0.036v-0.002 444.305c0 0.003 0 0.007 0 0.011 0 33.457 27.112 60.581 60.564 60.6h80.798v20.23c0.635 10.659 9.434 19.062 20.196 19.062s19.561-8.404 20.194-19.007l0.003-0.056v-20.23h141.385v20.23c0 11.173 9.057 20.23 20.23 20.23s20.23-9.057 20.23-20.23v0-20.23h80.841c33.435-0.019 60.532-27.128 60.532-60.566 0-0.012 0-0.024 0-0.036v0.002z" />
<glyph unicode="&#xe915;" glyph-name="plus" d="M224 496h576c26.51 0 48-21.49 48-48s-21.49-48-48-48v0h-576c-26.51 0-48 21.49-48 48s21.49 48 48 48v0zM560 736v-576c0-26.51-21.49-48-48-48s-48 21.49-48 48v0 576c0 26.51 21.49 48 48 48s48-21.49 48-48v0z" />
<glyph unicode="&#xe916;" glyph-name="qq" d="M721.471 489.727c4.395 17.579 7.325 35.157 7.325 55.667 0 117.192-96.683 212.409-213.875 212.409s-213.875-95.219-213.875-212.409c0-19.043 2.93-36.622 7.325-52.736-23.438-11.72-49.806-46.877-64.456-92.288-17.579-60.061-10.254-117.192 17.579-125.981 16.114-4.395 35.157 5.859 51.272 26.368 8.789-17.579 19.043-35.157 32.227-51.272-33.693-8.789-57.131-29.299-57.131-52.736 0-33.693 46.877-61.525 104.008-61.525 42.483 0 80.568 16.114 95.219 38.088 10.254-1.464 19.043-2.93 27.832-2.93s17.579 1.464 27.832 2.93c14.648-21.973 52.736-38.088 95.219-38.088 57.131 0 104.008 27.832 104.008 61.525 0 23.438-23.438 43.947-57.131 52.736 11.72 14.648 21.973 30.763 30.763 46.877 14.648-17.579 32.227-26.368 46.877-21.973 27.832 8.789 35.157 65.92 17.579 125.981-14.65 42.483-36.624 76.174-58.597 89.358zM873.818 809.074c-92.288 92.288-221.198 149.419-361.827 149.419s-269.539-57.131-361.827-149.419c-92.288-92.288-149.419-221.198-149.419-361.827 0-142.094 57.131-269.539 149.419-361.827s221.198-149.419 361.827-149.419 269.539 57.131 361.827 149.419c92.288 92.288 149.419 219.734 149.419 361.827 0 140.63-57.131 269.539-149.419 361.827zM831.338 127.899c-82.035-82.035-194.83-133.304-319.345-133.304s-237.312 51.272-319.345 133.304c-82.035 80.568-133.304 194.83-133.304 319.345s51.272 237.312 133.304 319.345 194.83 133.304 319.345 133.304 237.312-51.272 319.345-133.304 133.304-194.83 133.304-319.345-51.272-238.777-133.304-319.345z" />
<glyph unicode="&#xe917;" glyph-name="remove_circle_outline" d="M512 106q140 0 241 101t101 241-101 241-241 101-241-101-101-241 101-241 241-101zM512 874q176 0 301-125t125-301-125-301-301-125-301 125-125 301 125 301 301 125zM298 490h428v-84h-428v84z" />
<glyph unicode="&#xe918;" glyph-name="search" d="M948.032 57.216l-206.976 206.976c56.64 66.88 90.944 153.28 90.944 247.808 0 212.064-171.936 384-384 384s-384-171.936-384-384 171.936-384 384-384c94.528 0 180.928 34.304 247.808 90.912l206.976-206.976c14.016-14.016 35.488-15.232 48-2.72 12.48 12.512 11.264 33.984-2.752 48zM448 192c-176.736 0-320 143.264-320 320s143.264 320 320 320 320-143.264 320-320-143.264-320-320-320z" />
<glyph unicode="&#xe919;" glyph-name="setting" d="M965.824 554.048c-50.286 11.339-91.776 42.448-116.661 84.537l-0.459 0.839c-15.28 25.407-24.319 56.073-24.319 88.849 0 19.019 3.043 37.327 8.669 54.464l-0.35-1.233c0.613 1.938 0.966 4.167 0.966 6.479 0 6.847-3.099 12.971-7.971 17.045l-0.035 0.029c-43.412 37.64-94.425 67.923-150.255 88.157l-3.345 1.059c-2.288 0.833-4.928 1.314-7.681 1.314-6.531 0-12.43-2.71-16.632-7.067l-0.007-0.007c-33.351-35.691-80.704-57.936-133.253-57.936-0.853 0-1.706 0.006-2.556 0.018l0.129-0.001c-0.322-0.002-0.703-0.003-1.085-0.003-51.924 0-98.775 21.719-131.964 56.569l-0.071 0.075c-4.269 5.361-10.795 8.766-18.117 8.766-3.16 0-6.172-0.634-8.915-1.783l0.152 0.057c-59.209-21.441-110.226-51.938-154.161-90.336l0.561 0.48c-4.907-4.102-8.006-10.226-8.006-17.073 0-2.311 0.353-4.54 1.008-6.636l-0.042 0.157c5.192-15.783 8.186-33.95 8.186-52.815 0-32.685-8.988-63.27-24.627-89.42l0.441 0.795c-25.358-42.941-66.873-74.053-115.977-85.147l-1.207-0.229c-8.81-1.957-15.58-8.899-17.258-17.652l-0.022-0.14c-11.52-58.24-11.52-118.208 0-176.512 1.7-8.893 8.47-15.835 17.131-17.764l0.149-0.028c50.191-11.187 91.659-42.064 116.664-83.912l0.456-0.824c25.408-42.944 31.232-94.592 16-142.080-0.613-1.938-0.966-4.167-0.966-6.479 0-6.847 3.099-12.971 7.971-17.045l0.035-0.029c43.412-37.64 94.425-67.923 150.255-88.157l3.345-1.059h7.68c0.018 0 0.040 0 0.062 0 6.506 0 12.382 2.697 16.572 7.033l0.006 0.007c33.614 35.32 80.977 57.288 133.472 57.288s99.858-21.968 133.4-57.212l0.072-0.077c6.592-8.96 18.752-11.968 28.8-7.040 60.131 20.773 112.041 50.9 156.825 89.13l-0.665-0.554c4.907 4.102 8.006 10.226 8.006 17.073 0 2.311-0.353 4.54-1.008 6.636l0.042-0.157c-5.948 16.829-9.384 36.237-9.384 56.447 0 31.729 8.47 61.48 23.273 87.115l-0.449-0.842c25.462 42.673 66.929 73.549 115.917 84.51l1.203 0.226c8.81 1.957 15.58 8.899 17.258 17.652l0.022 0.14c11.584 58.24 11.584 118.208 0 176.512-1.856 8.814-8.553 15.683-17.123 17.76l-0.157 0.032zM922.944 384.64c-54.632-15.839-99.38-50.869-127.452-97.14l-0.548-0.972c-17.651-30.261-28.072-66.614-28.072-105.4 0-18.231 2.302-35.924 6.632-52.804l-0.319 1.469c-32.108-25.755-69.137-47.241-109.159-62.714l-2.841-0.966c-38.277 38.294-90.765 62.382-148.876 63.676l-0.244 0.004c-58.279-1.714-110.643-25.703-149.144-63.703l0.024 0.023c-42.866 16.416-79.898 37.904-112.814 64.311l0.814-0.631c12.8 53.12 4.288 109.12-23.68 156.096-28.097 47.172-72.165 82.341-124.595 98.345l-1.549 0.407c-3.364 19.144-5.287 41.188-5.287 63.68s1.923 44.535 5.613 65.974l-0.327-2.294c54.632 15.839 99.38 50.869 127.452 97.14l0.548 0.972c27.2 47.552 34.944 103.68 21.76 156.8 32.106 25.765 69.136 47.252 109.163 62.716l2.837 0.964c39.17-35.893 91.566-57.911 149.105-57.984h0.015c0.289-0.001 0.631-0.002 0.973-0.002 57.254 0 109.359 22.048 148.288 58.116l-0.141-0.13c42.868-16.424 79.901-37.934 112.807-64.371l-0.807 0.627c-3.699-14.816-5.822-31.825-5.822-49.33 0-39.341 10.721-76.179 29.401-107.75l-0.539 0.984c28.62-47.243 73.368-82.273 126.454-97.726l1.546-0.386c7.040-42.176 7.040-85.184 0-127.36l-1.28-0.64zM512 639.424c-105.984 0-192-85.568-192-191.104 0.255-105.599 85.918-191.105 191.551-191.105 0.158 0 0.315 0 0.473 0.001h-0.024c106.112 0 192.064 85.568 192.064 191.104-0.024 52.831-21.526 100.635-56.247 135.159l-0.009 0.009c-34.783 34.569-82.721 55.936-135.649 55.936-0.033 0-0.067 0-0.1 0h0.005zM512 320.896c-70.656 0-128 57.088-128 127.424 0 70.4 57.344 127.36 128 127.36 70.72 0 128-56.96 128-127.36 0-33.792-13.44-66.176-37.44-90.112-23.194-23.059-55.164-37.312-90.463-37.312-0.012 0-0.023 0-0.035 0h0.002z" />
<glyph unicode="&#xe91a;" glyph-name="shopping_cart" d="M726 192q34 0 59-26t25-60-25-59-59-25-60 25-26 59 26 60 60 26zM42 874h140l40-84h632q18 0 30-13t12-31q0-10-6-20l-152-276q-24-44-74-44h-318l-38-70-2-6q0-10 10-10h494v-86h-512q-34 0-59 26t-25 60q0 20 10 40l58 106-154 324h-86v84zM298 192q34 0 60-26t26-60-26-59-60-25-59 25-25 59 25 60 59 26z" />
<glyph unicode="&#xe91b;" glyph-name="shopping_ok" d="M391.25 139.58c21.862 0 39.584 17.726 39.584 39.584 0 21.862-17.722 39.582-39.584 39.582-21.858 0-39.582-17.72-39.582-39.582 0-21.858 17.724-39.584 39.582-39.584zM628.754 139.58c21.858 0 39.584 17.726 39.584 39.584 0 21.862-17.724 39.582-39.584 39.582-21.866 0-39.584-17.72-39.584-39.582-0.002-21.858 17.718-39.584 39.584-39.584zM510 950c-276.142 0-500-223.858-500-500s223.858-500 500-500 500 223.858 500 500-223.858 500-500 500zM824.774 626.168l-57.484-249.086h-19.792l-435.414-35.418v-4.166c0-21.86 17.722-39.582 39.584-39.582h455.208c0-19.956 0.62-39.582 0-39.582h-178.122c43.72 0 79.166-35.444 79.166-79.168s-35.444-79.17-79.166-79.17c-43.724 0-79.168 35.444-79.168 79.17 0 43.724 35.444 79.168 79.168 79.168h-237.504c43.724 0 79.168-35.444 79.168-79.168s-35.444-79.17-79.168-79.17c-43.72 0-79.166 35.444-79.166 79.17 0 43.724 35.444 79.168 79.166 79.168h-39.582c-43.724 0-79.168 35.442-79.168 79.164v356.248h-59.374c-10.932 0-19.792 8.862-19.792 19.792s8.86 19.798 19.792 19.798h118.75c10.928 0 19.792-8.868 19.792-19.798s-8.864-19.792-19.792-19.792h-19.792v-39.582h494.792c10.93 0 19.792-8.86 19.792-19.792 0-2.95-0.736-5.69-1.894-8.204zM312.084 378.642l424.392 33.508 50.606 202.428h-475v-235.936z" />
<glyph unicode="&#xe91c;" glyph-name="study_no" d="M88.020 799.984c0 53.016 42.979 95.995 95.995 95.995h639.97c53.016 0 95.995-42.979 95.995-95.995v-543.974c0-53.016-42.979-95.995-95.995-95.995h-623.97c-26.509 0-47.998-21.489-47.998-47.998s21.489-47.998 47.998-47.998h703.966c17.672 0 31.999-14.326 31.999-31.999s-14.326-31.999-31.999-31.999h-703.966c-56.421 0-111.995 39.998-111.995 95.995v703.968zM631.994 831.981h-447.978c-17.672 0-31.999-14.326-31.999-31.999v-586.749c14.547 6.91 30.821 10.777 47.998 10.777h623.97c17.672 0 31.999 14.326 31.999 31.999v543.974c0 17.672-14.326 31.999-31.999 31.999h-127.994v-447.979c0-17.672-14.326-31.999-31.999-31.999s-31.999 14.326-31.999 31.999v447.978z" />
<glyph unicode="&#xe91d;" glyph-name="study_ok" d="M631.994 895.979v-511.975c0-17.672 14.326-31.999 31.999-31.999s31.999 14.326 31.999 31.999v511.975h127.994c53.016 0 95.995-42.979 95.995-95.995v-543.974c0-53.016-42.979-95.995-95.995-95.995h-623.971c-26.509 0-47.998-21.489-47.998-47.998s21.489-47.998 47.998-47.998h703.966c17.672 0 31.999-14.326 31.999-31.999s-14.326-31.999-31.999-31.999h-703.966c-56.421 0-111.995 39.998-111.995 95.995v703.968c0 53.016 42.979 95.995 95.995 95.995h447.979z" />
<glyph unicode="&#xe91e;" glyph-name="thumb_down" d="M810 832h172v-512h-172v512zM640 832q34 0 60-26t26-60v-426q0-34-26-60l-280-282-46 46q-18 18-18 44v14l42 196h-270q-34 0-60 25t-26 59l2 4h-2v82q0 16 6 32l130 300q20 52 78 52h384z" />
<glyph unicode="&#xe91f;" glyph-name="thumb_no" d="M821.76 603.136h-140.8s20.992 69.12 31.744 186.368c5.12 59.392-36.864 115.712-98.304 122.368-3.584 0.512-7.68 0.512-11.264 0.512-50.176 0-94.208-34.304-103.424-82.944 0 0-14.848-76.288-22.528-103.424-12.8-45.056-57.856-94.72-90.112-111.104-24.576-12.288-115.712-12.288-121.344-12.288h-125.44c-34.304 0-61.952-27.648-61.952-61.952v-495.616c0-34.304 27.648-61.952 61.952-61.952h571.904c92.16 0 169.984 67.584 183.808 158.208l48.128 318.976c11.264 75.776-46.592 142.848-122.368 142.848zM146.432 535.040h125.44v-483.328h-125.44v483.328zM876.544 471.040l-48.128-318.976c-8.704-57.344-58.368-100.352-116.224-100.352h-371.712v485.888c51.712 4.608 69.12 12.8 75.776 16.384 47.104 23.040 107.008 87.040 125.952 153.6 8.192 29.184 22.528 100.864 24.064 109.568 3.072 15.872 18.432 27.136 36.352 27.136 1.024 0 2.048 0 4.608-0.512 24.576-2.56 39.424-27.136 37.376-48.128-9.728-107.52-28.672-172.544-29.184-173.056l-26.624-87.552h232.448c22.528 0 35.84-12.288 42.496-19.456 6.144-7.168 16.384-22.528 12.8-44.544z" />
<glyph unicode="&#xe920;" glyph-name="thumb_ok" d="M844.231 568.604h-184.32c-13.653 2.276-18.204 15.929-20.48 22.756v166.116c0 45.511-36.409 81.92-81.92 81.92-40.96 0-75.093-31.858-81.92-70.542-25.031-157.013-120.604-209.351-182.044-225.28 2.276-6.827 2.276-11.378 2.276-15.929v-441.458c0-9.102-2.276-18.204-6.827-27.307h446.009c43.236 9.102 72.818 25.031 93.298 68.267l93.298 327.68c18.204 59.164-11.378 116.053-77.369 113.778zM257.138 83.911v443.733c0 13.653-18.204 25.031-38.684 25.031h-61.44c-31.858 0-59.164-27.307-59.164-59.164v-373.191c0-34.133 25.031-61.44 59.164-61.44h61.44c20.48 0 38.684 11.378 38.684 25.031z" />
<glyph unicode="&#xe921;" glyph-name="thumb_up" d="M982 534l-2-4h2v-82q0-16-6-32l-130-300q-20-52-78-52h-384q-34 0-60 26t-26 60v426q0 34 26 60l280 282 46-46q18-18 18-44v-14l-42-196h270q34 0 60-25t26-59zM42 64v512h172v-512h-172z" />
<glyph unicode="&#xe922;" glyph-name="transpond" d="M791.008 435.296c-14.598 0-26.432-11.834-26.432-26.432v0-231.104c0-4.86-3.94-8.8-8.8-8.8v0h-525.76c-4.86 0-8.8 3.94-8.8 8.8v0 522.848c0 4.864 3.968 8.8 8.8 8.8h318.88c14.598 0 26.432 11.834 26.432 26.432s-11.834 26.432-26.432 26.432h-318.88c-34.034-0.055-61.609-27.63-61.664-61.659v-522.821c0.055-34.034 27.63-61.609 61.659-61.664h525.733c34.034 0.055 61.609 27.63 61.664 61.659v231.109c0 14.58-11.82 26.4-26.4 26.4v0zM863.008 640.096l-133.824 132.16c-4.826 5.077-11.63 8.235-19.171 8.235-14.598 0-26.432-11.834-26.432-26.432 0-7.661 3.259-14.56 8.466-19.388l0.017-0.016 88.896-87.776c-310.336-12.416-379.2-300.064-379.904-303.136-0.47-1.865-0.74-4.005-0.74-6.209 0-14.598 11.834-26.432 26.432-26.432 12.66 0 23.242 8.901 25.828 20.786l0.032 0.174c2.464 10.88 59.936 250.784 329.312 262.048l-95.36-99.904c-4.529-4.737-7.316-11.171-7.316-18.256 0-14.6 11.836-26.436 26.436-26.436 7.515 0 14.297 3.136 19.111 8.17l0.009 0.010 138.784 145.376c4.508 4.732 7.282 11.151 7.282 18.219 0 7.356-3.005 14.011-7.855 18.803l-0.003 0.003z" />
<glyph unicode="&#xe923;" glyph-name="user_no" d="M926.476-63.805c-13.483 0-24.381 10.923-24.381 24.381 0 104.204-40.57 226.523-114.274 300.227-9.509 9.509-9.509 24.966-0.024 34.499 9.533 9.509 24.966 9.509 34.475 0 82.92-82.895 128.585-217.502 128.585-334.726 0-13.458-10.898-24.381-24.381-24.381zM512 374.662c-1.39 0-2.731 0.195-4.096 0.195-102.668-1.073-199.070-41.35-271.75-114.054-73.679-73.704-114.249-196.023-114.249-300.227 0-13.458-10.898-24.381-24.381-24.381s-24.381 10.923-24.381 24.381c0 117.224 45.641 251.831 128.536 334.702 51.639 51.639 113.883 88.795 181.833 109.495-97.012 47.689-164.084 147.261-164.084 262.461 0 161.329 131.243 292.571 292.571 292.571s292.571-131.243 292.571-292.571c0-161.329-131.243-292.571-292.571-292.571zM512 911.043c-134.437 0-243.81-109.373-243.81-243.81 0-133.071 107.203-241.396 239.738-243.614 1.341 0.024 2.682 0.195 4.023 0.195 0.561 0 1.048-0.268 1.609-0.317 133.705 0.853 242.249 109.836 242.249 243.736 0 134.437-109.373 243.81-243.81 243.81z" />
<glyph unicode="&#xe924;" glyph-name="user_ok" d="M593.024 460.8c102.4 34.176 174.976 130.176 174.976 243.2 0 140.8-115.2 256-256 256s-256-115.2-256-256c0-113.024 72.576-209.024 174.976-243.2-181.376-36.224-345.6-189.824-345.6-375.424 0-83.2 66.176-149.376 149.376-149.376h554.624c83.2 0 149.376 66.176 149.376 149.376-0.128 185.6-164.352 339.2-345.728 375.424z" />
<glyph unicode="&#xe925;" glyph-name="weibo" d="M445.146 285.098c-100.894-4.724-182.449 45.875-182.449 113.193 0 67.393 81.555 121.452 182.449 126.111 100.947 4.648 182.674-36.951 182.674-104.219 0-67.324-81.727-130.512-182.674-135.085zM659.971 503.822c-23.977 4.648-12.32 17.551-12.32 17.551s23.442 38.651-4.648 66.74c-34.812 34.801-119.39-4.432-119.39-4.432-32.307-10.020-23.756 4.584-19.188 29.424 0 29.267-10.020 78.83-96.093 49.557-85.961-29.418-159.779-132.526-159.779-132.526-51.342-68.489-44.534-121.43-44.534-121.43 12.805-116.895 137.001-148.975 233.596-156.572 101.638-7.969 238.786 35.032 280.389 123.368 41.587 88.504-33.996 123.52-58.032 128.32zM459.248 397.556c-6.431-4.799-14.339-4.141-17.709 1.625-3.546 5.599-2.218 14.594 4.271 19.318 7.514 5.603 15.344 3.989 18.729-1.625 3.385-5.744 0.961-14.371-5.291-19.318zM399.418 346.608c-18.95-2.229-34.218 8.692-34.218 24.554 0 15.77 13.578 32.301 32.533 34.278 21.752 2.073 35.913-10.475 35.913-26.319 0-15.775-15.359-30.374-34.228-32.513zM425.013 479.997c-101.46-11.872-89.74-106.919-89.74-106.919s-1.041-30.104 27.205-45.426c59.371-32.166 120.492-12.697 151.4 27.2 30.893 39.892 12.757 136.953-88.865 125.145zM709.37 544.967c8.179 0 15.123 6.056 16.305 13.934 0.141 0.598 0.206 1.122 0.206 1.776 12.395 111.421-91.289 92.244-91.289 92.244-9.216 0-16.585-7.445-16.585-16.736 0-9.147 7.369-16.596 16.585-16.596 74.482 16.444 58.032-58.028 58.032-58.028 0-9.214 7.516-16.595 16.747-16.595zM697.287 739.459c-35.853 8.396-72.717 1.15-83.066-0.825-0.789-0.082-1.545-0.826-2.268-0.983-0.362-0.065-0.583-0.433-0.583-0.433-10.193-2.878-17.627-12.315-17.627-23.453 0-13.27 10.76-24.187 24.181-24.187 0 0 13.059 1.75 21.898 5.216 8.774 3.526 83.034 2.629 119.908-59.312 20.132-45.199 8.854-75.46 7.455-80.324 0 0-4.793-11.738-4.793-23.308 0-13.351 10.76-21.74 24.105-21.74 11.138 0 20.51 1.533 23.237 20.38h0.14c39.6 131.974-48.444 193.985-112.587 208.967zM511.997 958.651c-273.647 0-495.503-221.85-495.503-495.46 0-273.701 221.852-495.508 495.503-495.508 273.658 0 495.51 221.807 495.51 495.508 0 273.609-221.852 495.46-495.51 495.46zM511.24 932.113c258.173 0 468.214-209.997 468.214-468.165 0-258.216-210.040-468.24-468.214-468.24-258.211 0-468.251 210.024-468.251 468.24 0 258.168 210.040 468.165 468.251 468.165z" />
<glyph unicode="&#xe926;" glyph-name="weixin" d="M512.737-8.403c-246.99 0-447.905 200.954-447.905 447.911 0 246.943 200.915 447.898 447.905 447.898 246.947 0 447.904-200.954 447.904-447.898 0-246.959-200.957-447.911-447.904-447.911zM512.737 870.167c-237.488 0-430.666-193.172-430.666-430.658s193.178-430.658 430.666-430.658c237.445 0 430.665 193.172 430.665 430.658s-193.221 430.658-430.665 430.658zM615.26 505.374c7.010 0 13.962-0.534 20.772-1.311-18.72 87.122-111.827 151.754-217.996 151.754-118.794 0-216.116-80.98-216.116-183.832 0-59.269 32.413-108.029 86.481-145.877l-21.599-64.989 75.539 37.912c26.999-5.343 48.654-10.849 75.696-10.849 6.753 0 13.478 0.314 20.117 0.854-4.188 14.46-6.639 29.57-6.639 45.257-0.002 94.438 81.050 171.080 183.745 171.080zM499.101 563.944c16.213 0 27.028-10.671 27.028-26.949 0-16.206-10.813-27.055-27.028-27.055-16.228 0-32.484 10.849-32.484 27.055 0.001 16.278 16.256 26.949 32.484 26.949zM347.825 509.94c-16.213 0-32.598 10.849-32.598 27.055 0 16.277 16.384 26.949 32.598 26.949 16.185 0 26.913-10.671 26.913-26.949 0-16.206-10.728-27.055-26.913-27.055zM812.485 336.9c0 86.424-86.424 156.841-183.504 156.841-102.85 0-183.875-70.417-183.875-156.841 0-86.574 81.023-156.798 183.875-156.798 21.513 0 43.169 5.386 64.797 10.813l59.312-32.484-16.299 54.011c43.425 32.542 75.695 75.739 75.695 124.458zM569.34 363.956c-10.77 0-21.627 10.714-21.627 21.606 0 10.793 10.856 21.609 21.627 21.609 16.342 0 27.042-10.817 27.042-21.609 0-10.893-10.7-21.606-27.042-21.606zM688.205 363.956c-10.685 0-21.457 10.714-21.457 21.606 0 10.793 10.77 21.609 21.457 21.609 16.228 0 27.084-10.817 27.084-21.609 0.001-10.893-10.856-21.606-27.084-21.606z" />
</font>
</defs>
</svg>
